<?xml version="1.0" encoding="UTF-8" standalone="no"?>
<!DOCTYPE svg PUBLIC "-//W3C//DTD SVG 1.1//EN" "http://www.w3.org/Graphics/SVG/1.1/DTD/svg11.dtd">
<svg width="100%" height="100%" viewBox="0 0 700 700" version="1.1" xmlns="http://www.w3.org/2000/svg" xmlns:xlink="http://www.w3.org/1999/xlink" xml:space="preserve" xmlns:serif="http://www.serif.com/" style="fill-rule:evenodd;clip-rule:evenodd;stroke-linejoin:round;stroke-miterlimit:2;">
    <g transform="matrix(1,0,0,1,-0.00815881,70.0085)">
        <path d="M166.91,233.48L169.832,233.48C173.457,233.48 176.394,230.542 176.394,226.917C176.394,223.292 173.457,220.355 169.832,220.355L166.91,220.355C163.285,220.355 160.348,223.292 160.348,226.917C160.348,230.542 163.285,233.48 166.91,233.48Z" style="fill-rule:nonzero;"/>
        <path d="M221.12,220.35L199.022,220.35C195.397,220.35 192.46,223.288 192.46,226.913C192.46,230.538 195.397,233.475 199.022,233.475L221.12,233.475C224.745,233.475 227.683,230.538 227.683,226.913C227.683,223.288 224.745,220.35 221.12,220.35Z" style="fill-rule:nonzero;"/>
        <path d="M250.78,233.48L409.19,233.48C412.815,233.48 415.753,230.542 415.753,226.917C415.753,223.292 412.815,220.355 409.19,220.355L250.78,220.355C247.159,220.355 244.218,223.292 244.218,226.917C244.218,230.542 247.159,233.48 250.78,233.48Z" style="fill-rule:nonzero;"/>
        <path d="M166.91,171.15L169.832,171.15C173.457,171.15 176.394,168.213 176.394,164.588C176.394,160.963 173.457,158.025 169.832,158.025L166.91,158.025C163.285,158.025 160.348,160.963 160.348,164.588C160.348,168.213 163.285,171.15 166.91,171.15Z" style="fill-rule:nonzero;"/>
        <path d="M221.12,158.03L199.022,158.03C195.397,158.03 192.46,160.968 192.46,164.593C192.46,168.218 195.397,171.155 199.022,171.155L221.12,171.155C224.745,171.155 227.683,168.218 227.683,164.593C227.683,160.968 224.745,158.03 221.12,158.03Z" style="fill-rule:nonzero;"/>
        <path d="M250.78,171.15L409.19,171.15C412.815,171.15 415.753,168.213 415.753,164.588C415.753,160.963 412.815,158.025 409.19,158.025L250.78,158.025C247.159,158.025 244.218,160.963 244.218,164.588C244.218,168.213 247.159,171.15 250.78,171.15Z" style="fill-rule:nonzero;"/>
        <path d="M166.91,108.83L169.832,108.83C173.457,108.83 176.394,105.893 176.394,102.268C176.394,98.643 173.457,95.705 169.832,95.705L166.91,95.705C163.285,95.705 160.348,98.643 160.348,102.268C160.348,105.893 163.285,108.83 166.91,108.83Z" style="fill-rule:nonzero;"/>
        <path d="M221.12,95.703L199.022,95.703C195.397,95.703 192.46,98.641 192.46,102.266C192.46,105.891 195.397,108.828 199.022,108.828L221.12,108.828C224.745,108.828 227.683,105.891 227.683,102.266C227.683,98.641 224.745,95.703 221.12,95.703Z" style="fill-rule:nonzero;"/>
        <path d="M250.78,108.83L409.19,108.83C412.815,108.83 415.753,105.893 415.753,102.268C415.753,98.643 412.815,95.705 409.19,95.705L250.78,95.705C247.159,95.705 244.218,98.643 244.218,102.268C244.218,105.893 247.159,108.83 250.78,108.83Z" style="fill-rule:nonzero;"/>
        <path d="M166.91,295.8L169.832,295.8C173.457,295.8 176.394,292.863 176.394,289.238C176.394,285.616 173.457,282.675 169.832,282.675L166.91,282.675C163.285,282.675 160.348,285.616 160.348,289.238C160.348,292.863 163.285,295.8 166.91,295.8Z" style="fill-rule:nonzero;"/>
        <path d="M221.12,282.68L199.022,282.68C195.397,282.68 192.46,285.621 192.46,289.243C192.46,292.868 195.397,295.805 199.022,295.805L221.12,295.805C224.745,295.805 227.683,292.868 227.683,289.243C227.683,285.621 224.745,282.68 221.12,282.68Z" style="fill-rule:nonzero;"/>
        <path d="M250.78,295.8L346.87,295.8C350.495,295.8 353.433,292.863 353.433,289.238C353.433,285.616 350.495,282.675 346.87,282.675L250.78,282.675C247.159,282.675 244.218,285.616 244.218,289.238C244.218,292.863 247.159,295.8 250.78,295.8Z" style="fill-rule:nonzero;"/>
        <g transform="matrix(1,0,0,1,-177.307,276.965)">
            <text x="328.105px" y="153.539px" style="font-family:'LucidaGrande-Bold', 'Lucida Grande', sans-serif;font-weight:600;font-size:96px;">€</text>
        </g>
        <g transform="matrix(1,0,0,1,-24.5859,0)">
            <path d="M300.75,408.22L245.277,408.22C241.652,408.22 238.714,411.158 238.714,414.783C238.714,418.404 241.652,421.345 245.277,421.345L300.75,421.345C304.371,421.345 307.313,418.404 307.313,414.783C307.313,411.158 304.371,408.22 300.75,408.22Z" style="fill-rule:nonzero;"/>
        </g>
        <path d="M324.731,463.4L288.059,492.736L251.258,463.295L251.262,463.295C248.864,461.377 245.453,461.377 243.059,463.295L206.258,492.736L169.449,463.295C167.054,461.377 163.644,461.377 161.246,463.295L131.004,487.49L131.004,70.68C131.019,58.321 135.937,46.469 144.676,37.731C153.418,28.989 165.266,24.075 177.629,24.059L463.169,24.059C451.681,34.082 445.091,48.579 445.091,63.825L445.091,286.765C403.611,288.601 365.446,309.96 342.191,344.359C318.937,378.757 313.336,422.132 327.093,461.309L324.731,463.4Z" style="fill-opacity:0;stroke:black;stroke-width:25px;"/>
        <path d="M522.453,519.979C502.252,534.18 477.639,542.52 451.093,542.52C382.497,542.52 326.806,486.829 326.806,418.233C326.806,349.637 382.497,293.945 451.093,293.945" style="fill-opacity:0;"/>
        <g transform="matrix(1,0,0,1,2.57457,-70.61)">
            <path d="M336.798,488.241C336.798,425.164 383.855,374.54 453.445,374.54C512.23,374.54 560.297,422.607 560.297,481.392L560.297,489.188L540.486,489.188C537.887,489.188 535.289,490.812 533.991,493.084C532.693,495.359 532.693,498.281 534.315,500.554L563.87,547.325C565.168,549.599 567.767,550.897 570.042,550.897C572.64,550.897 574.912,549.599 576.213,547.325L606.093,500.556C608.041,498.284 608.041,495.359 606.743,493.087L606.74,493.087C605.442,490.812 602.844,489.19 600.245,489.19L580.434,489.19L580.434,481.395C580.434,411.965 524.244,355.379 454.968,354.737C453.774,354.233 452.462,353.954 451.085,353.954C376.97,353.954 316.798,414.126 316.798,488.241C316.798,562.356 376.97,622.528 451.085,622.528C479.77,622.528 506.367,613.514 528.196,598.168C532.711,594.994 533.8,588.752 530.625,584.237C527.451,579.721 521.209,578.633 516.694,581.807C498.121,594.863 475.491,602.528 451.085,602.528C388.008,602.528 336.798,551.318 336.798,488.241Z"/>
        </g>
        <g transform="matrix(0.695238,0,0,1,130.282,-82.2585)">
            <path d="M456.418,428.093C456.418,425.44 453.321,423.287 449.506,423.287L435.68,423.287C431.865,423.287 428.767,425.44 428.767,428.093L428.767,521.06C428.767,523.712 431.865,525.866 435.68,525.866L449.506,525.866C453.321,525.866 456.418,523.712 456.418,521.06L456.418,428.093Z"/>
        </g>
        <g transform="matrix(-0.347619,0.602094,-0.735572,-0.424683,972.034,389.639)">
            <path d="M456.418,428.945C456.418,425.822 453.321,423.287 449.506,423.287L435.68,423.287C431.865,423.287 428.767,425.822 428.767,428.945L428.767,520.207C428.767,523.33 431.865,525.866 435.68,525.866L449.506,525.866C453.321,525.866 456.418,523.33 456.418,520.207L456.418,428.945Z"/>
        </g>
    </g>
</svg>
