<?xml version="1.0" encoding="UTF-8" standalone="no"?>
<!DOCTYPE svg PUBLIC "-//W3C//DTD SVG 1.1//EN" "http://www.w3.org/Graphics/SVG/1.1/DTD/svg11.dtd">
<svg width="100%" height="100%" viewBox="0 0 700 700" version="1.1" xmlns="http://www.w3.org/2000/svg" xmlns:xlink="http://www.w3.org/1999/xlink" xml:space="preserve" xmlns:serif="http://www.serif.com/" style="fill-rule:evenodd;clip-rule:evenodd;stroke-linejoin:round;stroke-miterlimit:2;">
    <g>
        <g transform="matrix(1.29968,0,0,1.29968,-120.201,-5.94959)">
            <path d="M352.5,112.54C355.539,112.54 358.582,113.544 360.902,115.552L432.207,177.236C433.907,178.701 435.485,179.404 436.801,179.404C439.094,179.404 440.61,177.287 440.61,173.392L440.61,158.513C440.61,152.38 445.586,147.404 451.719,147.404L479.465,147.404C485.597,147.404 490.574,152.381 490.574,158.513L490.574,216.615C490.574,222.748 494.335,230.978 498.976,234.994L533.609,264.955C538.254,268.971 537.035,272.225 530.902,272.225L501.679,272.225C495.546,272.225 490.57,276.631 490.57,282.06L490.57,437.916C490.57,444.049 485.593,449.025 479.461,449.025L225.541,449.029C219.408,449.029 214.432,444.053 214.432,437.92L214.432,283.33C214.432,277.197 209.455,272.221 203.323,272.221L174.1,272.221C167.967,272.221 166.752,268.967 171.393,264.952L344.103,115.552C346.419,113.536 349.462,112.536 352.501,112.536M352.501,95.872C345.33,95.872 338.474,98.384 333.2,102.939L160.49,252.349C149.135,262.165 151.951,272.857 153.084,275.9C154.217,278.95 159.084,288.88 174.096,288.88L197.764,288.88L197.764,437.91C197.764,453.222 210.225,465.683 225.537,465.683L479.467,465.683C494.779,465.683 507.24,453.222 507.24,437.91L507.24,288.88L530.908,288.88C545.924,288.88 550.787,278.946 551.92,275.9C553.053,272.857 555.869,262.158 544.51,252.341L509.881,222.38C508.826,221.38 507.303,218.051 507.236,216.571L507.24,158.501C507.24,143.189 494.779,130.728 479.467,130.728L451.721,130.728C439.6,130.728 429.268,138.533 425.487,149.376L371.807,102.938C366.526,98.379 359.674,95.868 352.502,95.868L352.501,95.872Z" style="fill-rule:nonzero;"/>
        </g>
        <g transform="matrix(1,0,0,1,-139.376,348.736)">
            <text x="374.137px" y="153.539px" style="font-family:'LucidaGrande-Bold', 'Lucida Grande', sans-serif;font-weight:600;font-size:288px;">€</text>
        </g>
    </g>
</svg>
