<?xml version="1.0" encoding="UTF-8" standalone="no"?>
<!DOCTYPE svg PUBLIC "-//W3C//DTD SVG 1.1//EN" "http://www.w3.org/Graphics/SVG/1.1/DTD/svg11.dtd">
<svg width="100%" height="100%" viewBox="0 0 700 700" version="1.1" xmlns="http://www.w3.org/2000/svg" xmlns:xlink="http://www.w3.org/1999/xlink" xml:space="preserve" xmlns:serif="http://www.serif.com/" style="fill-rule:evenodd;clip-rule:evenodd;stroke-linecap:round;stroke-linejoin:round;stroke-miterlimit:1.5;">
    <g transform="matrix(1,0,0,1,4.376,70)">
        <g>
            <g transform="matrix(1,0,0,1,17.0544,-8.36109)">
                <path d="M166.25,350L148.75,350L148.75,332.5L131.25,332.5L131.25,350L113.75,350C108.918,350 105,353.918 105,358.75L105,516.25C105,518.57 105.922,520.797 107.563,522.438C109.203,524.078 111.43,525 113.75,525L131.25,525L131.25,542.5L148.75,542.5L148.75,525L166.25,525C168.57,525 170.797,524.078 172.438,522.438C174.078,520.797 175,518.57 175,516.25L175,358.75C175,356.43 174.078,354.203 172.438,352.563C170.797,350.922 168.57,350 166.25,350ZM157.5,507.5L122.5,507.5L122.5,367.5L157.5,367.5L157.5,507.5Z" style="fill-rule:nonzero;"/>
            </g>
            <g transform="matrix(1,0,0,1,-10.9865,-42.3392)">
                <path d="M271.25,280L253.75,280L253.75,262.5L236.25,262.5L236.25,280L218.75,280C213.918,280 210,283.918 210,288.75L210,358.75C210,361.07 210.922,363.297 212.563,364.938C214.203,366.578 216.43,367.5 218.75,367.5L236.25,367.5L236.25,402.5L253.75,402.5L253.75,367.5L271.25,367.5C273.57,367.5 275.797,366.578 277.438,364.938C279.078,363.297 280,361.07 280,358.75L280,288.75C280,286.43 279.078,284.203 277.438,282.563C275.797,280.922 273.57,280 271.25,280ZM262.5,350L227.5,350L227.5,297.5L262.5,297.5L262.5,350Z" style="fill-rule:nonzero;"/>
            </g>
            <path d="M376.25,350L358.75,350L358.75,297.5L341.25,297.5L341.25,350L323.75,350C318.918,350 315,353.918 315,358.75L315,428.75C315,431.07 315.922,433.297 317.563,434.938C319.203,436.578 321.43,437.5 323.75,437.5L341.25,437.5L341.25,455L358.75,455L358.75,437.5L376.25,437.5C378.57,437.5 380.797,436.578 382.438,434.938C384.078,433.297 385,431.07 385,428.75L385,358.75C385,356.43 384.078,354.203 382.438,352.563C380.797,350.922 378.57,350 376.25,350ZM367.5,420L332.5,420L332.5,367.5L367.5,367.5L367.5,420Z" style="fill-rule:nonzero;"/>
            <path d="M481.25,236.25L463.75,236.25L463.75,218.75L446.25,218.75L446.25,236.25L428.75,236.25C423.918,236.25 420,240.168 420,245L420,358.75C420,361.07 420.922,363.297 422.563,364.938C424.203,366.578 426.43,367.5 428.75,367.5L446.25,367.5L446.25,402.5L463.75,402.5L463.75,367.5L481.25,367.5C483.57,367.5 485.797,366.578 487.438,364.938C489.078,363.297 490,361.07 490,358.75L490,245C490,242.68 489.078,240.453 487.438,238.813C485.797,237.172 483.57,236.25 481.25,236.25ZM472.5,350L437.5,350L437.5,253.75L472.5,253.75L472.5,350Z" style="fill-rule:nonzero;"/>
            <path d="M586.25,157.5L568.75,157.5L568.75,140L551.25,140L551.25,157.5L533.75,157.5C528.918,157.5 525,161.418 525,166.25L525,245C525,247.32 525.922,249.547 527.563,251.188C529.203,252.828 531.43,253.75 533.75,253.75L551.25,253.75L551.25,271.25L568.75,271.25L568.75,253.75L586.25,253.75C588.57,253.75 590.797,252.828 592.438,251.188C594.078,249.547 595,247.32 595,245L595,166.25C595,163.93 594.078,161.703 592.438,160.063C590.797,158.422 588.57,157.5 586.25,157.5ZM577.5,236.25L542.5,236.25L542.5,175L577.5,175L577.5,236.25Z" style="fill-rule:nonzero;"/>
        </g>
        <g transform="matrix(1.13057,0,0,1.13057,-42.4351,-25.2519)">
            <path d="M343.81,277.44C347.228,280.854 352.767,280.854 356.185,277.44L601.185,32.44L588.81,20.065L350,258.885L251.188,160.069C247.77,156.655 242.231,156.655 238.813,160.069L90.063,308.819L102.434,321.19L245.004,178.63L343.81,277.44Z" style="fill-rule:nonzero;"/>
        </g>
        <g transform="matrix(1,0,0,1,-1.52515,-2.76706)">
            <path d="M350,210C375.527,210 400.008,199.859 418.059,181.809C436.11,163.758 446.25,139.278 446.25,113.75C446.25,88.222 436.109,63.742 418.059,45.691C400.008,27.64 375.528,17.5 350,17.5C324.472,17.5 299.992,27.641 281.941,45.691C263.89,63.742 253.75,88.222 253.75,113.75C253.781,139.27 263.93,163.73 281.973,181.777C300.02,199.82 324.481,209.968 350,210ZM350,35C370.887,35 390.918,43.297 405.684,58.066C420.454,72.832 428.75,92.863 428.75,113.75C428.75,134.637 420.453,154.668 405.684,169.434C390.918,184.204 370.887,192.5 350,192.5C329.113,192.5 309.082,184.203 294.316,169.434C279.546,154.668 271.25,134.637 271.25,113.75C271.277,92.871 279.582,72.855 294.344,58.094C309.106,43.333 329.121,35.028 350,35Z" style="fill-rule:nonzero;"/>
            <g transform="matrix(1,0,0,1,-38.0312,12.2774)">
                <text x="339.613px" y="153.539px" style="font-family:'LucidaGrande-Bold', 'Lucida Grande', sans-serif;font-weight:600;font-size:144px;">€</text>
            </g>
            <g transform="matrix(1.6558,0,0,1,-49.4086,-71.9337)">
                <path d="M95.197,414.642C95.197,411.511 93.661,408.969 91.77,408.969L84.918,408.969C83.027,408.969 81.492,411.511 81.492,414.642L81.492,615.765C81.492,618.896 83.027,621.438 84.918,621.438L91.77,621.438C93.661,621.438 95.197,618.896 95.197,615.765L95.197,414.642Z" style="stroke:rgb(235,235,235);stroke-width:0.73px;"/>
            </g>
        </g>
    </g>
</svg>
