<?xml version="1.0" encoding="UTF-8" standalone="no"?>
<!DOCTYPE svg PUBLIC "-//W3C//DTD SVG 1.1//EN" "http://www.w3.org/Graphics/SVG/1.1/DTD/svg11.dtd">
<svg width="100%" height="100%" viewBox="0 0 700 700" version="1.1" xmlns="http://www.w3.org/2000/svg" xmlns:xlink="http://www.w3.org/1999/xlink" xml:space="preserve" xmlns:serif="http://www.serif.com/" style="fill-rule:evenodd;clip-rule:evenodd;stroke-linejoin:round;stroke-miterlimit:2;">
    <g transform="matrix(1,0,0,1,0.000275,81.6639)">
        <path d="M466.67,46.668C472.651,46.668 477.584,51.172 478.256,56.973L478.334,58.332L478.334,81.668L513.334,81.668C538.326,81.668 558.732,101.313 559.943,126.004L560.002,128.332L560.002,431.672C560.002,463.039 535.24,488.626 504.197,489.949L501.669,490.004L198.329,490.004C166.962,490.004 141.376,465.242 140.052,434.199L139.998,431.672L139.998,128.332C139.998,103.34 159.643,82.937 184.334,81.723L186.666,81.668L221.666,81.668L221.666,58.332C221.666,51.891 226.888,46.668 233.33,46.668C239.314,46.668 244.244,51.172 244.92,56.973L244.998,58.333L244.998,81.669L454.998,81.669L454.998,58.333C454.998,51.891 460.221,46.669 466.666,46.669L466.67,46.668ZM536.67,198.328L163.33,198.328L163.33,431.668C163.33,449.617 176.842,464.41 194.248,466.43L196.275,466.606L198.33,466.668L501.67,466.668C520.307,466.668 535.545,452.098 536.608,433.723L536.671,431.669L536.67,198.328ZM227.5,384.998C237.164,384.998 245,392.834 245,402.498C245,412.162 237.164,419.998 227.5,419.998C217.836,419.998 210,412.162 210,402.498C210,392.834 217.836,384.998 227.5,384.998ZM309.168,384.998C318.832,384.998 326.668,392.834 326.668,402.498C326.668,412.162 318.832,419.998 309.168,419.998C299.5,419.998 291.668,412.162 291.668,402.498C291.668,392.834 299.5,384.998 309.168,384.998ZM390.832,384.998C400.5,384.998 408.332,392.834 408.332,402.498C408.332,412.162 400.5,419.998 390.832,419.998C381.168,419.998 373.332,412.162 373.332,402.498C373.332,392.834 381.168,384.998 390.832,384.998ZM472.5,384.998C482.164,384.998 490,392.834 490,402.498C490,412.162 482.164,419.998 472.5,419.998C462.836,419.998 455,412.162 455,402.498C455,392.834 462.836,384.998 472.5,384.998ZM227.5,314.998C237.164,314.998 245,322.834 245,332.498C245,342.162 237.164,349.998 227.5,349.998C217.836,349.998 210,342.162 210,332.498C210,322.834 217.836,314.998 227.5,314.998ZM309.168,314.998C318.832,314.998 326.668,322.834 326.668,332.498C326.668,342.162 318.832,349.998 309.168,349.998C299.5,349.998 291.668,342.162 291.668,332.498C291.668,322.834 299.5,314.998 309.168,314.998ZM390.832,314.998C400.5,314.998 408.332,322.834 408.332,332.498C408.332,342.162 400.5,349.998 390.832,349.998C381.168,349.998 373.332,342.162 373.332,332.498C373.332,322.834 381.168,314.998 390.832,314.998ZM472.5,314.998C482.164,314.998 490,322.834 490,332.498C490,342.162 482.164,349.998 472.5,349.998C462.836,349.998 455,342.162 455,332.498C455,322.834 462.836,314.998 472.5,314.998ZM309.17,244.998C318.834,244.998 326.67,252.834 326.67,262.498C326.67,272.162 318.834,279.998 309.17,279.998C299.502,279.998 291.67,272.162 291.67,262.498C291.67,252.834 299.502,244.998 309.17,244.998ZM390.834,244.998C400.502,244.998 408.334,252.834 408.334,262.498C408.334,272.162 400.502,279.998 390.834,279.998C381.17,279.998 373.334,272.162 373.334,262.498C373.334,252.834 381.17,244.998 390.834,244.998ZM472.502,244.998C482.166,244.998 490.002,252.834 490.002,262.498C490.002,272.162 482.166,279.998 472.502,279.998C462.838,279.998 455.002,272.162 455.002,262.498C455.002,252.834 462.838,244.998 472.502,244.998ZM221.672,104.998L186.672,104.998C174.371,104.998 164.293,114.517 163.402,126.592L163.336,128.33L163.336,174.998L536.676,174.998L536.676,128.33C536.676,116.646 528.082,106.967 516.875,105.264L515.082,105.061L513.339,104.999L478.339,104.999L478.339,128.331C478.339,134.776 473.117,139.999 466.675,139.999C460.691,139.999 455.761,135.495 455.085,129.694L455.007,128.33L455.007,104.998L245.007,104.998L245.007,128.33C245.007,134.776 239.785,139.998 233.339,139.998C227.359,139.998 222.425,135.494 221.753,129.693L221.675,128.33L221.672,104.998Z" style="fill-rule:nonzero;"/>
    </g>
</svg>
